<svg width="48" height="48" viewBox="0 0 48 48" fill="none" xmlns="http://www.w3.org/2000/svg">
<path d="M33.9804 19.8801C33.9336 18.8174 33.7617 18.0868 33.5156 17.4537C33.2616 16.7818 32.8709 16.1801 32.359 15.68C31.8589 15.1721 31.2533 14.7774 30.5891 14.5274C29.9524 14.2813 29.2256 14.1094 28.163 14.0626C27.0923 14.0118 26.7525 14 24.0371 14C21.3217 14 20.9818 14.0118 19.9152 14.0586C18.8525 14.1055 18.1219 14.2775 17.489 14.5235C16.8169 14.7774 16.2153 15.1681 15.7152 15.68C15.2073 16.1801 14.8127 16.7857 14.5626 17.4499C14.3164 18.0868 14.1446 18.8134 14.0977 19.8761C14.0469 20.9467 14.0352 21.2866 14.0352 24.002C14.0352 26.7173 14.0469 27.0572 14.0938 28.1239C14.1406 29.1865 14.3126 29.9171 14.5588 30.5502C14.8127 31.2221 15.2073 31.8238 15.7152 32.3239C16.2153 32.8318 16.8209 33.2265 17.4851 33.4765C18.1219 33.7226 18.8486 33.8945 19.9114 33.9413C20.9779 33.9883 21.3179 33.9999 24.0333 33.9999C26.7486 33.9999 27.0885 33.9883 28.1552 33.9413C29.2178 33.8945 29.9484 33.7226 30.5813 33.4765C31.9254 32.9568 32.9881 31.8941 33.5078 30.5502C33.7538 29.9133 33.9258 29.1865 33.9726 28.1239C34.0195 27.0572 34.0312 26.7173 34.0312 24.002C34.0312 21.2866 34.0273 20.9467 33.9804 19.8801ZM32.1794 28.0457C32.1364 29.0225 31.9723 29.5499 31.8355 29.9015C31.4995 30.7728 30.808 31.4643 29.9367 31.8004C29.585 31.9372 29.0538 32.1012 28.0808 32.1441C27.026 32.1911 26.7096 32.2027 24.0411 32.2027C21.3725 32.2027 21.0522 32.1911 20.0011 32.1441C19.0244 32.1012 18.4969 31.9372 18.1453 31.8004C17.7117 31.6402 17.317 31.3862 16.9967 31.0541C16.6646 30.7298 16.4106 30.3391 16.2504 29.9055C16.1137 29.5539 15.9496 29.0225 15.9067 28.0497C15.8597 26.9948 15.8481 26.6783 15.8481 24.0097C15.8481 21.3412 15.8597 21.0209 15.9067 19.9699C15.9496 18.9932 16.1137 18.4657 16.2504 18.1141C16.4106 17.6804 16.6646 17.2859 17.0007 16.9654C17.3248 16.6333 17.7155 16.3793 18.1493 16.2192C18.5009 16.0825 19.0323 15.9184 20.0051 15.8754C21.06 15.8285 21.3765 15.8168 24.0449 15.8168C26.7174 15.8168 27.0337 15.8285 28.0848 15.8754C29.0616 15.9184 29.589 16.0825 29.9406 16.2192C30.3742 16.3793 30.7689 16.6333 31.0892 16.9654C31.4213 17.2897 31.6753 17.6804 31.8355 18.1141C31.9723 18.4657 32.1364 18.997 32.1794 19.9699C32.2262 21.0248 32.238 21.3412 32.238 24.0097C32.238 26.6783 32.2262 26.9908 32.1794 28.0457Z" fill="url(#paint0_linear_283_3999)"/>
<path d="M24.0371 18.8642C21.2007 18.8642 18.8994 21.1654 18.8994 24.002C18.8994 26.8385 21.2007 29.1397 24.0371 29.1397C26.8736 29.1397 29.1748 26.8385 29.1748 24.002C29.1748 21.1654 26.8736 18.8642 24.0371 18.8642ZM24.0371 27.3347C22.197 27.3347 20.7044 25.8422 20.7044 24.002C20.7044 22.1617 22.197 20.6692 24.0371 20.6692C25.8774 20.6692 27.3698 22.1617 27.3698 24.002C27.3698 25.8422 25.8774 27.3347 24.0371 27.3347Z" fill="url(#paint1_linear_283_3999)"/>
<path d="M30.5776 18.6611C30.5776 19.3235 30.0405 19.8605 29.378 19.8605C28.7156 19.8605 28.1785 19.3235 28.1785 18.6611C28.1785 17.9986 28.7156 17.4617 29.378 17.4617C30.0405 17.4617 30.5776 17.9986 30.5776 18.6611Z" fill="url(#paint2_linear_283_3999)"/>
<defs>
<linearGradient id="paint0_linear_283_3999" x1="24.0332" y1="14" x2="24.0332" y2="33.9999" gradientUnits="userSpaceOnUse">
<stop stop-color="#6C69FB"/>
<stop offset="0.321157" stop-color="#C33993"/>
<stop offset="0.715021" stop-color="#F07330"/>
<stop offset="1" stop-color="#F29843"/>
</linearGradient>
<linearGradient id="paint1_linear_283_3999" x1="24.0332" y1="14" x2="24.0332" y2="33.9999" gradientUnits="userSpaceOnUse">
<stop stop-color="#6C69FB"/>
<stop offset="0.321157" stop-color="#C33993"/>
<stop offset="0.715021" stop-color="#F07330"/>
<stop offset="1" stop-color="#F29843"/>
</linearGradient>
<linearGradient id="paint2_linear_283_3999" x1="24.0332" y1="14" x2="24.0332" y2="33.9999" gradientUnits="userSpaceOnUse">
<stop stop-color="#6C69FB"/>
<stop offset="0.321157" stop-color="#C33993"/>
<stop offset="0.715021" stop-color="#F07330"/>
<stop offset="1" stop-color="#F29843"/>
</linearGradient>
</defs>
</svg>
