<svg width="22" height="22" viewBox="0 0 22 22" fill="none" xmlns="http://www.w3.org/2000/svg">
<g clip-path="url(#clip0_465_3742)">
<path d="M21.7386 11.206C21.7386 10.3047 21.6654 9.64693 21.5071 8.96484H11.2148V13.033H17.2562C17.1344 14.044 16.4767 15.5665 15.0151 16.5896L14.9946 16.7258L18.2488 19.2468L18.4743 19.2693C20.5449 17.357 21.7386 14.5434 21.7386 11.206Z" fill="#4285F4"/>
<path d="M11.2148 21.923C14.1746 21.923 16.6593 20.9486 18.4742 19.2677L15.015 16.588C14.0893 17.2336 12.8469 17.6842 11.2148 17.6842C8.31594 17.6842 5.85555 15.772 4.97849 13.1289L4.84993 13.1398L1.46613 15.7586L1.42188 15.8816C3.22453 19.4626 6.92733 21.923 11.2148 21.923Z" fill="#34A853"/>
<path d="M4.97784 13.1306C4.74642 12.4485 4.61249 11.7176 4.61249 10.9625C4.61249 10.2072 4.74642 9.47646 4.96566 8.79437L4.95953 8.64911L1.53333 5.98828L1.42123 6.0416C0.678266 7.52761 0.251953 9.19634 0.251953 10.9625C0.251953 12.7286 0.678266 14.3972 1.42123 15.8832L4.97784 13.1306Z" fill="#FBBC05"/>
<path d="M11.2148 4.23869C13.2732 4.23869 14.6618 5.12785 15.4535 5.87089L18.5473 2.85018C16.6472 1.08405 14.1746 0 11.2148 0C6.92733 0 3.22453 2.46039 1.42188 6.04135L4.96631 8.79412C5.85555 6.15102 8.31594 4.23869 11.2148 4.23869Z" fill="#EB4335"/>
</g>
<defs>
<clipPath id="clip0_465_3742">
<rect width="21.4962" height="22" fill="white" transform="translate(0.251953)"/>
</clipPath>
</defs>
</svg>
